<svg xmlns="http://www.w3.org/2000/svg" version="1.1" xmlns:xlink="http://www.w3.org/1999/xlink" xmlns:svgjs="http://svgjs.dev/svgjs" width="1000" height="116" viewBox="0 0 1000 116"><g transform="matrix(1,0,0,1,-0.6060423451014003,0.09693287418785701)"><svg viewBox="0 0 396 46" data-background-color="#ffffff" preserveAspectRatio="xMidYMid meet" height="116" width="1000" xmlns="http://www.w3.org/2000/svg" xmlns:xlink="http://www.w3.org/1999/xlink"><g id="tight-bounds" transform="matrix(1,0,0,1,0.23999276866015862,-0.038438898384839604)"><svg viewBox="0 0 395.52 46.07687779676966" height="46.07687779676966" width="395.52"><g><svg viewBox="0 0 506.74671296385793 59.0344517777872" height="46.07687779676966" width="395.52"><g><rect width="4.436489820729237" height="59.0344517777872" x="95.17637544488466" y="0" fill="#3bc9db" opacity="1" stroke-width="0" stroke="transparent" fill-opacity="1" class="rect-o-0" data-fill-palette-color="primary" rx="1%" id="o-0" data-palette-color="#3bc9db"></rect></g><g transform="matrix(1,0,0,1,111.22671296385796,4.919537648148932)"><svg viewBox="0 0 395.52 49.19537648148933" height="49.19537648148933" width="395.52"><g id="textblocktransform"><svg viewBox="0 0 395.52 49.19537648148933" height="49.19537648148933" width="395.52" id="textblock"><g><svg viewBox="0 0 395.52 49.19537648148933" height="49.19537648148933" width="395.52"><g transform="matrix(1,0,0,1,0,0)"><svg width="395.52" viewBox="-0.21555551886558533 -32.15999984741211 366.8955383300781 45.63999938964844" height="49.19537648148933" data-palette-color="#3bc9db"><path d="M1.96 1.64L1.96 1.64Q1.96 4.6 5.08 5.2L5.08 5.2Q5.68 5.32 6.44 5.32L6.44 5.32Q11.44 5.32 14.36 2.1 17.28-1.12 17.28-6L17.28-6Q17.28-7.92 16.58-9.54 15.88-11.16 14.84-12.22 13.8-13.28 12.58-14.36 11.36-15.44 10.32-16.32 9.28-17.2 8.58-18.44 7.88-19.68 7.88-21.08L7.88-21.08Q7.88-24.76 11.18-27.86 14.48-30.96 18.28-30.96L18.28-30.96Q19.04-30.96 19.4-30.4 19.76-29.84 19.76-29.28L19.76-29.28 19.72-28.76Q19.44-28.92 18.32-28.92L18.32-28.92Q15.76-28.92 13.36-26.52 10.96-24.12 10.96-20.96L10.96-20.96Q10.96-19.68 11.66-18.46 12.36-17.24 13.4-16.32 14.44-15.4 15.64-14.26 16.84-13.12 17.88-12.02 18.92-10.92 19.62-9.34 20.32-7.76 20.32-6L20.32-6Q20.32-1.16 16.32 2.6 12.32 6.36 6.44 6.36L6.44 6.36Q1.48 6.36 0.16 3.16L0.16 3.16Q-0.88 0.52 0.96-2.68 2.8-5.88 6.28-7L6.28-7Q7.56-7.4 8.56-7.4 9.56-7.4 9.94-7.06 10.32-6.72 10.44-6L10.44-6Q6.68-6 4-2.96L4-2.96Q1.96-0.68 1.96 1.64ZM20.52-20.48L20.52-20.48Q20.52-20.28 20.14-20.28 19.76-20.28 19.44-20.44 19.12-20.6 19.12-20.88L19.12-20.88Q19.12-24.96 20.04-27.44 20.96-29.92 22.48-29.92L22.48-29.92Q22.88-29.92 23.16-29.64 23.44-29.36 23.44-28.92L23.44-28.92Q21.64-27.12 20.84-23.52L20.84-23.52Q20.52-22.08 20.52-20.48ZM25.16-3.4L25.16-3.4Q25.16-9.32 26.38-13.96 27.6-18.6 29.48-18.6L29.48-18.6Q30.4-18.6 30.4-17.6L30.4-17.6Q30-16.56 29.4-14.84 28.8-13.12 27.82-8.62 26.84-4.12 26.84-0.6L26.84-0.6Q26.84-0.04 26.24-0.04L26.24-0.04Q25.16-0.04 25.16-3.4ZM31-23.04L30.52-22.36Q29.68-22.36 29.68-23.96L29.68-23.96Q29.68-24.92 30.2-25.98 30.72-27.04 31.68-27.04L31.68-27.04Q32.48-27.04 32.48-26.12L32.48-26.12Q32.48-25.2 31-23.04L31-23.04ZM42.64-4.88L42.64-4.88Q42.64-9.8 44.44-17.32L44.44-17.32Q44.55-17.72 44.2-17.68L44.2-17.68Q43.91-17.64 43.67-17.44L43.67-17.44Q41.91-15.96 39.8-11.96 37.67-7.96 36.4-4.66 35.12-1.36 35.12-0.8L35.12-0.8Q35.12-0.32 34.52-0.32L34.52-0.32Q33.31-0.32 33.31-3.48L33.31-3.48Q33.31-9.48 34.52-14.3 35.72-19.12 37.44-19.12L37.44-19.12Q38.2-19.12 38.2-18.28L38.2-18.28Q36.36-12.48 35.55-6.36L35.55-6.36 35.91-6.36Q41.2-19.56 45.64-19.56L45.64-19.56Q47.55-19.56 47.55-17.68L47.55-17.68Q45.67-12.08 44.84-6.64L44.84-6.64 45.16-6.64Q46.48-9.44 47.81-11.74 49.16-14.04 50.95-16.02 52.76-18 54.2-18L54.2-18Q56.12-18 56.12-16.16L56.12-16.16Q54.03-9.24 54.03-2.68L54.03-2.68Q54.03 1.56 55.31 1.56L55.31 1.56Q55.76 1.56 56.2 1.18 56.64 0.8 56.8 0.8L56.8 0.8Q57.36 0.8 56.76 1.68L56.76 1.68Q56.59 1.96 56.05 2.44 55.52 2.92 55 2.92L55 2.92Q53.44 2.92 52.58 0.74 51.72-1.44 51.72-4.92L51.72-4.92Q51.72-11.04 53-15.68L53-15.68Q53.08-15.96 52.8-15.96L52.8-15.96Q52.55-15.92 52.31-15.72L52.31-15.72Q50.03-13.76 47.23-8.46 44.44-3.16 44.44-2.2L44.44-2.2Q44.44-1.72 43.8-1.72L43.8-1.72Q42.64-1.72 42.64-4.88ZM66.99-3.68L66.99-3.68Q66.99-1.28 68.27-1.28L68.27-1.28Q69.91-1.28 71.87-5.68L71.87-5.68Q74.15-10.72 74.15-15.12L74.15-15.12Q74.15-18.12 72.57-18.12 70.99-18.12 69.11-15.68 67.23-13.24 65.77-10.02 64.31-6.8 63.27-3.94 62.23-1.08 62.01 0.3 61.79 1.68 61.67 2.38 61.55 3.08 61.29 4.6 61.03 6.12 60.81 6.92 60.59 7.72 60.23 8.94 59.87 10.16 59.49 10.82 59.11 11.48 58.63 12.16L58.63 12.16Q57.67 13.48 56.19 13.48L56.19 13.48Q54.27 13.48 54.27 11.28L54.27 11.28Q54.27 7.36 60.27-3.48L60.27-3.48Q60.87-7.88 61.51-10.6L61.51-10.6Q62.91-17.04 64.49-20.58 66.07-24.12 67.35-24.12L67.35-24.12Q67.99-24.12 67.99-23.36L67.99-23.36Q66.07-18.28 64.03-10.48L64.03-10.48 63.79-9.56 64.31-9.56Q68.87-19.48 72.91-19.48L72.91-19.48Q76.67-19.48 76.67-13.52L76.67-13.52Q76.67-9.2 74.47-4.88L74.47-4.88Q72.03 0 68.63 0L68.63 0Q65.87 0 65.87-3.6L65.87-3.6Q65.87-5.52 66.93-8.02 67.99-10.52 69.71-11.72L69.71-11.72Q70.07-11.92 70.31-11.56L70.31-11.56Q70.35-11.36 70.27-11.28L70.27-11.28Q68.75-10.08 67.87-7.76 66.99-5.44 66.99-3.68ZM55.35 10.92L55.35 10.92Q55.35 12.12 56.23 12.12L56.23 12.12Q58.03 12.12 58.91 7.24L58.91 7.24Q59.23 5.56 60.03-1.24L60.03-1.24Q56.39 5.8 55.51 9.68L55.51 9.68Q55.35 10.4 55.35 10.92ZM84.67 5.84L84.67 5.84Q82.35 5.84 81.25 3.4 80.15 0.96 80.15-3.92 80.15-8.8 81.59-15.48 83.03-22.16 84.97-26.56 86.91-30.96 88.35-30.96L88.35-30.96Q89.03-30.96 89.03-30.16L89.03-30.16Q88.19-28.24 86.91-24.38 85.63-20.52 84.77-17.24 83.91-13.96 83.21-9.56 82.51-5.16 82.51-2.02 82.51 1.12 83.13 2.82 83.75 4.52 84.83 4.52L84.83 4.52Q85.75 4.52 86.59 3.66 87.43 2.8 87.79 1.96L87.79 1.96Q87.99 1.52 88.51 1.72L88.51 1.72Q88.71 1.8 88.61 2.06 88.51 2.32 88.29 2.72 88.07 3.12 87.51 3.96L87.51 3.96Q86.31 5.84 84.67 5.84ZM90.39 12.52L90.39 12.52Q93.99 12.52 96.03 9.12L96.03 9.12Q97.79 6.12 98.75 1.64L98.75 1.64Q91.51 1.8 87.63 7.16L87.63 7.16Q87.39 7.52 86.87 7.28L86.87 7.28Q86.59 7.12 86.71 6.88L86.71 6.88Q88.43 4.28 91.51 2.46 94.59 0.64 98.99 0.48L98.99 0.48Q99.43-1.52 99.83-4.2 100.23-6.88 100.75-9.4L100.75-9.4 100.39-9.4Q95.19-0.16 92.47-0.16L92.47-0.16Q89.43-0.16 89.43-4.84 89.43-9.52 91.43-14.26 93.43-19 95.07-19.36L95.07-19.36 95.31-19.4Q95.99-19.4 95.99-18.52L95.99-18.52Q95.55-17.44 94.87-15.7 94.19-13.96 93.07-9.98 91.95-6 91.95-3.78 91.95-1.56 92.91-1.56L92.91-1.56Q94.03-1.56 96.51-5.44L96.51-5.44Q100.15-11.12 102.83-16.96L102.83-16.96Q103.99-19.4 105.31-19.4L105.31-19.4Q106.15-19.4 106.15-18.48L106.15-18.48Q105.39-17.08 104.31-13.24 103.23-9.4 102.55-5.5 101.87-1.6 101.39 0.6L101.39 0.6Q104.43 1.12 104.91 3.24L104.91 3.24Q104.99 3.6 104.99 4.22 104.99 4.84 104.51 5.3 104.03 5.76 103.67 5.76L103.67 5.76Q103.75 5.48 103.71 4.78 103.67 4.08 103.45 3.6 103.23 3.12 102.63 2.6 102.03 2.08 101.07 1.84L101.07 1.84Q97.99 13.44 90.39 13.44L90.39 13.44Q87.11 13.44 86.03 11.12L86.03 11.12Q85.99 11 85.99 10.92L85.99 10.92Q85.99 10.68 86.41 10.62 86.83 10.56 87.03 10.88L87.03 10.88Q87.75 12.52 90.39 12.52ZM120.54 1.64L120.54 1.64Q120.54 4.6 123.66 5.2L123.66 5.2Q124.26 5.32 125.02 5.32L125.02 5.32Q130.02 5.32 132.94 2.1 135.86-1.12 135.86-6L135.86-6Q135.86-7.92 135.16-9.54 134.46-11.16 133.42-12.22 132.38-13.28 131.16-14.36 129.94-15.44 128.9-16.32 127.86-17.2 127.16-18.44 126.46-19.68 126.46-21.08L126.46-21.08Q126.46-24.76 129.76-27.86 133.06-30.96 136.86-30.96L136.86-30.96Q137.62-30.96 137.98-30.4 138.34-29.84 138.34-29.28L138.34-29.28 138.3-28.76Q138.02-28.92 136.9-28.92L136.9-28.92Q134.34-28.92 131.94-26.52 129.54-24.12 129.54-20.96L129.54-20.96Q129.54-19.68 130.24-18.46 130.94-17.24 131.98-16.32 133.02-15.4 134.22-14.26 135.42-13.12 136.46-12.02 137.5-10.92 138.2-9.34 138.9-7.76 138.9-6L138.9-6Q138.9-1.16 134.9 2.6 130.9 6.36 125.02 6.36L125.02 6.36Q120.06 6.36 118.74 3.16L118.74 3.16Q117.7 0.52 119.54-2.68 121.38-5.88 124.86-7L124.86-7Q126.14-7.4 127.14-7.4 128.14-7.4 128.52-7.06 128.9-6.72 129.02-6L129.02-6Q125.26-6 122.58-2.96L122.58-2.96Q120.54-0.68 120.54 1.64ZM139.1-20.48L139.1-20.48Q139.1-20.28 138.72-20.28 138.34-20.28 138.02-20.44 137.7-20.6 137.7-20.88L137.7-20.88Q137.7-24.96 138.62-27.44 139.54-29.92 141.06-29.92L141.06-29.92Q141.46-29.92 141.74-29.64 142.02-29.36 142.02-28.92L142.02-28.92Q140.22-27.12 139.42-23.52L139.42-23.52Q139.1-22.08 139.1-20.48ZM164.38-18.12L164.38-18.12Q165.54-17.24 166.6-17.24 167.66-17.24 168.1-17.52L168.1-17.52Q168.1-17 167.64-16.54 167.18-16.08 166.32-16.08 165.46-16.08 164.46-16.48L164.46-16.48Q164.38-12.72 163.22-8.78 162.06-4.84 160.22-2.18 158.38 0.48 156.58 0.48 154.78 0.48 153.82-0.92L153.82-0.92Q152.82-2.48 152.82-5.36L152.82-5.36Q152.82-7 153.02-8.88L153.02-8.88Q148.06 0 145.4 0 142.74 0 142.74-4.48L142.74-4.48Q142.74-9.12 145.02-14.4L145.02-14.4Q146.94-18.6 148.54-18.8L148.54-18.8Q149.3-18.8 149.3-17.96L149.3-17.96Q148.82-16.8 148.1-14.98 147.38-13.16 146.2-9.16 145.02-5.16 145.02-3.26 145.02-1.36 145.86-1.36L145.86-1.36Q146.9-1.36 149.12-4.72 151.34-8.08 153.02-11.44L153.02-11.44 154.74-14.76Q155.86-17 156.74-17 157.62-17 157.62-16.16L157.62-16.16Q155.18-7.8 155.18-3.08L155.18-3.08Q155.18-0.88 156.46-0.88L156.46-0.88Q157.9-0.88 159.48-3.26 161.06-5.64 162.12-9.46 163.18-13.28 163.18-17L163.18-17 163.18-17.24Q162.02-18.08 161.3-19.24 160.58-20.4 160.58-20.98 160.58-21.56 161.1-22.04 161.62-22.52 162.22-22.52L162.22-22.52Q162.98-22.52 163.58-21.18 164.18-19.84 164.38-18.12ZM178.3-19.4L178.3-19.4Q181.34-19.4 181.34-15.84L181.34-15.84Q181.34-13.8 179.98-11.56L179.98-11.56Q177.66-7.84 173.82-7.84L173.82-7.84Q173.22-7.84 172.82-8.04 172.42-8.24 172.22-8.64L172.22-8.64Q175.06-8.64 177.42-11.92L177.42-11.92Q179.34-14.56 179.34-16.76L179.34-16.76Q179.34-18.4 178.02-18.4L178.02-18.4Q175.38-18.4 173.1-14.28L173.1-14.28Q170.66-9.8 170.66-5.08L170.66-5.08Q170.66-1.08 172.94-0.28L172.94-0.28Q173.38-0.12 174.06-0.12 174.74-0.12 175.5-0.46 176.26-0.8 176.78-1.28L176.78-1.28Q177.82-2.24 178.5-3.4L178.5-3.4Q178.66-3.72 179.1-3.72L179.1-3.72Q179.82-3.72 179.78-3.48L179.78-3.48Q179.66-3.04 178.88-2 178.1-0.96 177.44-0.34 176.78 0.28 175.72 0.78 174.66 1.28 173.58 1.28L173.58 1.28Q169.34 1.28 168.18-2.72L168.18-2.72Q167.82-4.08 167.82-5.52L167.82-5.52Q167.82-8.2 169.06-11.36L169.06-11.36Q171.02-16.16 174.46-18.28L174.46-18.28Q176.34-19.4 178.3-19.4ZM193.86-19.4L193.86-19.4Q196.9-19.4 196.9-15.84L196.9-15.84Q196.9-13.8 195.54-11.56L195.54-11.56Q193.22-7.84 189.38-7.84L189.38-7.84Q188.78-7.84 188.38-8.04 187.98-8.24 187.78-8.64L187.78-8.64Q190.62-8.64 192.98-11.92L192.98-11.92Q194.9-14.56 194.9-16.76L194.9-16.76Q194.9-18.4 193.58-18.4L193.58-18.4Q190.94-18.4 188.66-14.28L188.66-14.28Q186.22-9.8 186.22-5.08L186.22-5.08Q186.22-1.08 188.5-0.28L188.5-0.28Q188.94-0.12 189.62-0.12 190.3-0.12 191.06-0.46 191.82-0.8 192.34-1.28L192.34-1.28Q193.38-2.24 194.06-3.4L194.06-3.4Q194.22-3.72 194.66-3.72L194.66-3.72Q195.38-3.72 195.34-3.48L195.34-3.48Q195.22-3.04 194.44-2 193.66-0.96 193-0.34 192.34 0.28 191.28 0.78 190.22 1.28 189.14 1.28L189.14 1.28Q184.9 1.28 183.74-2.72L183.74-2.72Q183.38-4.08 183.38-5.52L183.38-5.52Q183.38-8.2 184.62-11.36L184.62-11.36Q186.58-16.16 190.02-18.28L190.02-18.28Q191.9-19.4 193.86-19.4ZM201.33-17.32L201.33-17.32Q199.77-17.32 199.77-18.6L199.77-18.6Q199.77-19.08 200.17-19.2L200.17-19.2Q200.21-19.24 200.29-19.24L200.29-19.24Q200.53-18.96 201.19-18.96 201.85-18.96 203.29-19.04L203.29-19.04Q205.17-24.12 206.89-24.12L206.89-24.12Q207.57-24.12 207.57-23.36L207.57-23.36Q206.93-21.76 206.13-19.24L206.13-19.24Q210.09-19.68 211.29-19.68L211.29-19.68Q211.61-19.68 211.61-19.36L211.61-19.36Q211.61-18.72 210.77-18.72L210.77-18.72Q210.33-18.72 205.69-17.88L205.69-17.88Q202.53-7.88 202.53-1.68 202.53 4.52 205.01 4.52L205.01 4.52Q206.01 4.52 206.89 3.66 207.77 2.8 208.13 1.96L208.13 1.96Q208.29 1.52 208.81 1.72L208.81 1.72Q209.05 1.8 208.97 1.96L208.97 1.96Q208.73 2.48 208.37 3.16 208.01 3.84 206.97 4.84 205.93 5.84 204.85 5.84L204.85 5.84Q200.09 5.84 200.09-2.44L200.09-2.44Q200.09-9.44 202.69-17.4L202.69-17.4Q202.13-17.32 201.33-17.32ZM243.69-18.44L243.69-18.44Q248.45-16.92 248.45-10.64L248.45-10.64Q248.45-5.4 243.99-0.38 239.53 4.64 231.73 4.64L231.73 4.64Q225.61 4.64 223.77 1.08L223.77 1.08Q223.13-0.12 223.13-1.38 223.13-2.64 223.77-3.96L223.77-3.96Q224.97-6.52 227.25-6.52L227.25-6.52Q227.45-6.52 227.53-6.3 227.61-6.08 227.51-5.84 227.41-5.6 227.21-5.6L227.21-5.6Q225.85-5.6 224.93-3.84L224.93-3.84Q224.29-2.68 224.29-1.64 224.29-0.6 224.77 0.36L224.77 0.36Q226.17 3.08 231.01 3.08L231.01 3.08Q237.09 3.08 241.57-2.04L241.57-2.04Q245.05-5.96 245.85-10.64L245.85-10.64Q246.05-11.76 246.05-12.72L246.05-12.72Q246.05-15.48 244.41-16.84L244.41-16.84Q243.53-17.56 242.25-17.68L242.25-17.68Q240.09-16.76 237.61-16.76L237.61-16.76Q237.33-16.76 237.33-17.3 237.33-17.84 237.61-17.84L237.61-17.84Q241.65-17.84 244.69-21.64L244.69-21.64Q246.93-24.48 247.09-27.2L247.09-27.2Q247.01-29.6 245.21-29.72L245.21-29.72Q243.25-29.72 241.01-26.92 238.77-24.12 236.97-20.12 235.17-16.12 233.67-11.94 232.17-7.76 231.33-4.78 230.49-1.8 230.49-1.28 230.49-0.76 229.93-0.76L229.93-0.76Q228.73-0.76 228.73-3.96L228.73-3.96Q228.73-11.68 230.47-18.96 232.21-26.24 234.33-28.68L234.33-28.68Q228.61-27.88 225.05-24.64L225.05-24.64Q223.01-22.84 223.01-20.72L223.01-20.72Q223.01-19.68 223.81-19.68L223.81-19.68Q223.65-19.12 222.93-19.12 222.21-19.12 221.67-19.68 221.13-20.24 221.13-21.24L221.13-21.24Q221.13-23.6 223.99-25.62 226.85-27.64 230.17-28.62 233.49-29.6 235.81-29.6L235.81-29.6Q236.45-29.6 236.45-28.96L236.45-28.96Q233.85-22.92 231.73-11.32L231.73-11.32 232.05-11.32Q234.37-18.56 237.53-24.28L237.53-24.28Q239.21-27.36 241.25-29.14 243.29-30.92 245.41-30.92L245.41-30.92Q248.77-30.92 249.41-28.2L249.41-28.2Q249.53-27.64 249.53-27L249.53-27Q249.53-24.84 247.87-22.38 246.21-19.92 243.69-18.44ZM252.77 12.52L252.77 12.52Q256.37 12.52 258.41 9.12L258.41 9.12Q260.17 6.12 261.13 1.64L261.13 1.64Q253.89 1.8 250.01 7.16L250.01 7.16Q249.77 7.52 249.25 7.28L249.25 7.28Q248.97 7.12 249.09 6.88L249.09 6.88Q250.81 4.28 253.89 2.46 256.97 0.64 261.37 0.48L261.37 0.48Q261.81-1.52 262.21-4.2 262.61-6.88 263.13-9.4L263.13-9.4 262.77-9.4Q257.57-0.16 254.85-0.16L254.85-0.16Q251.81-0.16 251.81-4.84 251.81-9.52 253.81-14.26 255.81-19 257.45-19.36L257.45-19.36 257.69-19.4Q258.37-19.4 258.37-18.52L258.37-18.52Q257.93-17.44 257.25-15.7 256.57-13.96 255.45-9.98 254.33-6 254.33-3.78 254.33-1.56 255.29-1.56L255.29-1.56Q256.41-1.56 258.89-5.44L258.89-5.44Q262.53-11.12 265.21-16.96L265.21-16.96Q266.37-19.4 267.69-19.4L267.69-19.4Q268.53-19.4 268.53-18.48L268.53-18.48Q267.77-17.08 266.69-13.24 265.61-9.4 264.93-5.5 264.25-1.6 263.77 0.6L263.77 0.6Q266.81 1.12 267.29 3.24L267.29 3.24Q267.37 3.6 267.37 4.22 267.37 4.84 266.89 5.3 266.41 5.76 266.05 5.76L266.05 5.76Q266.13 5.48 266.09 4.78 266.05 4.08 265.83 3.6 265.61 3.12 265.01 2.6 264.41 2.08 263.45 1.84L263.45 1.84Q260.37 13.44 252.77 13.44L252.77 13.44Q249.49 13.44 248.41 11.12L248.41 11.12Q248.37 11 248.37 10.92L248.37 10.92Q248.37 10.68 248.79 10.62 249.21 10.56 249.41 10.88L249.41 10.88Q250.13 12.52 252.77 12.52ZM295.72 0.56L295.72 0.56Q293.76-1.32 293.76-5.08L293.76-5.08Q293.76-9.28 296.52-13.76L296.52-13.76Q298.04-16.24 300.64-17.84 303.24-19.44 306.32-19.44L306.32-19.44Q307.68-19.44 309.24-18.96L309.24-18.96Q312.28-23.96 314.2-26.2 316.12-28.44 317.52-29.6L317.52-29.6Q320.68-32.16 323.92-32.16L323.92-32.16Q324.56-32.16 324.56-31.52L324.56-31.52Q321.92-25.72 320.5-19.82 319.08-13.92 318.3-8.34 317.52-2.76 317.52 1.12L317.52 1.12Q317.52 1.68 316.96 1.68L316.96 1.68Q315.56 1.68 315.56-1.52L315.56-1.52Q315.56-5.56 314.8-8.84L314.8-8.84Q313.4-15.08 309.92-17.08L309.92-17.08Q309.48-16.24 308.26-13.88 307.04-11.52 306.46-10.42 305.88-9.32 304.74-7.34 303.6-5.36 302.8-4.16L302.8-4.16Q300.88-1.28 298.64 0.88L298.64 0.88Q299.04 1 299.6 1L299.6 1Q302.96 1 305.16-1.22 307.36-3.44 308.2-6.48L308.2-6.48Q308.32-6.92 308.84-6.88L308.84-6.88Q309.16-6.84 309.08-6.56L309.08-6.56Q308.2-3.12 305.74-0.54 303.28 2.04 299.56 2.04L299.56 2.04Q298.72 2.04 297.68 1.76L297.68 1.76Q294 4.72 289.84 4.72L289.84 4.72Q284.44 4.72 282.16 0.48L282.16 0.48Q280.92-1.8 280.92-4.44L280.92-4.44Q280.92-5.84 281.28-7.36L281.28-7.36Q282.24-11.48 285.2-13.24L285.2-13.24Q286.68-14.12 288.44-14.12L288.44-14.12Q289-14.12 289.36-13.78 289.72-13.44 289.88-12.72L289.88-12.72Q287.52-12.72 285.64-11.04L285.64-11.04Q282.48-8.28 282.48-3.2L282.48-3.2Q282.48-0.12 284.34 1.62 286.2 3.36 289.34 3.36 292.48 3.36 295.72 0.56ZM306.28-18L306.28-18Q302.92-18 300.24-15.8 297.56-13.6 296.32-10.66 295.08-7.72 295.08-4.72 295.08-1.72 296.6-0.16L296.6-0.16Q298.12-1.6 299.84-3.94 301.56-6.28 302.56-7.88 303.56-9.48 305.68-13.08 307.8-16.68 308.44-17.72L308.44-17.72Q307.48-18 306.28-18ZM321.84-30.6L321.84-30.6Q318.64-29.76 316-26.64 313.36-23.52 310.6-18.36L310.6-18.36Q314.48-16.24 316.04-9.88L316.04-9.88Q316.76-16.68 318.38-22.38 320-28.08 321.84-30.6ZM333.04-4.88L333.04-4.88Q333.04-9.8 334.84-17.32L334.84-17.32Q334.96-17.72 334.6-17.68L334.6-17.68Q334.32-17.64 334.08-17.44L334.08-17.44Q332.32-15.96 330.2-11.96 328.08-7.96 326.8-4.66 325.52-1.36 325.52-0.8L325.52-0.8Q325.52-0.32 324.92-0.32L324.92-0.32Q323.72-0.32 323.72-3.48L323.72-3.48Q323.72-9.48 324.92-14.3 326.12-19.12 327.84-19.12L327.84-19.12Q328.6-19.12 328.6-18.28L328.6-18.28Q326.76-12.48 325.96-6.36L325.96-6.36 326.32-6.36Q331.6-19.56 336.04-19.56L336.04-19.56Q337.96-19.56 337.96-17.68L337.96-17.68Q336.08-12.08 335.24-6.64L335.24-6.64 335.56-6.64Q336.88-9.44 338.22-11.74 339.56-14.04 341.36-16.02 343.16-18 344.6-18L344.6-18Q346.52-18 346.52-16.16L346.52-16.16Q344.44-9.24 344.44-2.68L344.44-2.68Q344.44 1.56 345.72 1.56L345.72 1.56Q346.16 1.56 346.6 1.18 347.04 0.8 347.2 0.8L347.2 0.8Q347.76 0.8 347.16 1.68L347.16 1.68Q347 1.96 346.46 2.44 345.92 2.92 345.4 2.92L345.4 2.92Q343.84 2.92 342.98 0.74 342.12-1.44 342.12-4.92L342.12-4.92Q342.12-11.04 343.4-15.68L343.4-15.68Q343.48-15.96 343.2-15.96L343.2-15.96Q342.96-15.92 342.72-15.72L342.72-15.72Q340.44-13.76 337.64-8.46 334.84-3.16 334.84-2.2L334.84-2.2Q334.84-1.72 334.2-1.72L334.2-1.72Q333.04-1.72 333.04-4.88ZM350.92 12.52L350.92 12.52Q354.52 12.52 356.56 9.12L356.56 9.12Q358.32 6.12 359.28 1.64L359.28 1.64Q352.04 1.8 348.16 7.16L348.16 7.16Q347.92 7.52 347.4 7.28L347.4 7.28Q347.12 7.12 347.24 6.88L347.24 6.88Q348.96 4.28 352.04 2.46 355.12 0.64 359.52 0.48L359.52 0.48Q359.96-1.52 360.36-4.2 360.76-6.88 361.28-9.4L361.28-9.4 360.92-9.4Q355.72-0.16 353-0.16L353-0.16Q349.96-0.16 349.96-4.84 349.96-9.52 351.96-14.26 353.96-19 355.6-19.36L355.6-19.36 355.84-19.4Q356.52-19.4 356.52-18.52L356.52-18.52Q356.08-17.44 355.4-15.7 354.72-13.96 353.6-9.98 352.48-6 352.48-3.78 352.48-1.56 353.44-1.56L353.44-1.56Q354.56-1.56 357.04-5.44L357.04-5.44Q360.68-11.12 363.36-16.96L363.36-16.96Q364.52-19.4 365.84-19.4L365.84-19.4Q366.68-19.4 366.68-18.48L366.68-18.48Q365.92-17.08 364.84-13.24 363.76-9.4 363.08-5.5 362.4-1.6 361.92 0.6L361.92 0.6Q364.96 1.12 365.44 3.24L365.44 3.24Q365.52 3.6 365.52 4.22 365.52 4.84 365.04 5.3 364.56 5.76 364.2 5.76L364.2 5.76Q364.28 5.48 364.24 4.78 364.2 4.08 363.98 3.6 363.76 3.12 363.16 2.6 362.56 2.08 361.6 1.84L361.6 1.84Q358.52 13.44 350.92 13.44L350.92 13.44Q347.64 13.44 346.56 11.12L346.56 11.12Q346.52 11 346.52 10.92L346.52 10.92Q346.52 10.68 346.94 10.62 347.36 10.56 347.56 10.88L347.56 10.88Q348.28 12.52 350.92 12.52Z" opacity="1" transform="matrix(1,0,0,1,0,0)" fill="#3bc9db" class="wordmark-text-0" data-fill-palette-color="primary" id="text-0"></path></svg></g></svg></g></svg></g></svg></g><g transform="matrix(1,0,0,1,0,4.021722027361744)"><svg viewBox="0 0 83.56252774664058 50.99100772306371" height="50.99100772306371" width="83.56252774664058"><g><svg xmlns="http://www.w3.org/2000/svg" xmlns:xlink="http://www.w3.org/1999/xlink" version="1.1" x="0" y="0" viewBox="5.250999450683594 20.743999481201172 79.5 48.51199722290039" enable-background="new 0 0 90 90" xml:space="preserve" height="50.99100772306371" width="83.56252774664058" class="icon-icon-0" data-fill-palette-color="accent" id="icon-0"><path fill="#66d9e8" d="M84.751 45c0-1.761-0.896-3.446-2.525-5.003-0.004 0.003-0.008 0.006-0.012 0.01 1.637-1.56 2.537-3.248 2.537-5.013 0-7.87-17.797-14.25-39.75-14.25-21.953 0-39.75 6.38-39.75 14.25 0 1.765 0.901 3.453 2.537 5.013C7.785 40.003 7.78 40 7.777 39.997 6.148 41.554 5.251 43.239 5.251 45c0 1.762 0.898 3.449 2.529 5.006-0.001 0-0.002-0.002-0.004-0.003-1.629 1.557-2.525 3.242-2.525 5.003 0 7.87 17.797 14.25 39.75 14.25 21.953 0 39.75-6.38 39.75-14.25 0-1.761-0.896-3.446-2.525-5.003-0.002 0.001-0.003 0.003-0.004 0.003C83.853 48.449 84.751 46.762 84.751 45zM7.251 45c0-1.239 0.714-2.508 2.047-3.739 6.469 4.728 20.023 7.983 35.703 7.983 15.681 0 29.236-3.256 35.705-7.984 0 0-0.001 0.001-0.002 0.001 1.332 1.23 2.047 2.5 2.047 3.739 0 5.794-15.503 12.25-37.75 12.25S7.251 50.794 7.251 45zM8.891 50.956c0.027 0.021 0.053 0.042 0.081 0.063C8.944 50.998 8.918 50.977 8.891 50.956zM10.273 51.932c0.028 0.019 0.057 0.035 0.084 0.053C10.33 51.967 10.301 51.95 10.273 51.932zM11.829 52.85c0.011 0.006 0.021 0.012 0.033 0.018C11.85 52.861 11.84 52.855 11.829 52.85zM13.511 53.691c0.059 0.027 0.12 0.055 0.179 0.082C13.631 53.746 13.57 53.719 13.511 53.691zM17.419 55.256c0.09 0.031 0.181 0.062 0.272 0.093C17.6 55.318 17.509 55.287 17.419 55.256zM21.927 56.6c0.119 0.03 0.237 0.061 0.357 0.091C22.164 56.66 22.045 56.63 21.927 56.6zM24.565 57.223c0.058 0.013 0.118 0.024 0.177 0.037C24.683 57.247 24.623 57.236 24.565 57.223zM26.971 57.698c0.139 0.025 0.276 0.052 0.416 0.077C27.248 57.75 27.11 57.724 26.971 57.698zM29.823 58.172c0.135 0.02 0.272 0.038 0.408 0.058C30.095 58.21 29.958 58.191 29.823 58.172zM32.512 58.528c0.136 0.017 0.271 0.034 0.408 0.05C32.783 58.562 32.649 58.545 32.512 58.528zM35.503 58.838c0.185 0.016 0.371 0.03 0.556 0.046C35.874 58.868 35.688 58.854 35.503 58.838zM38.509 59.058c0.104 0.006 0.205 0.014 0.309 0.02C38.714 59.071 38.612 59.063 38.509 59.058zM41.538 59.192c0.214 0.007 0.429 0.013 0.644 0.018C41.966 59.205 41.752 59.199 41.538 59.192zM81.03 51.02c0.028-0.021 0.054-0.043 0.081-0.063C81.084 50.977 81.059 50.998 81.03 51.02zM47.821 59.21c0.215-0.005 0.43-0.011 0.643-0.018C48.251 59.199 48.036 59.205 47.821 59.21zM51.185 59.077c0.104-0.006 0.205-0.014 0.308-0.02C51.39 59.063 51.288 59.071 51.185 59.077zM53.944 58.884c0.185-0.016 0.37-0.03 0.555-0.046C54.314 58.854 54.13 58.868 53.944 58.884zM57.083 58.578c0.136-0.016 0.27-0.033 0.404-0.05C57.353 58.545 57.219 58.562 57.083 58.578zM59.774 58.229c0.134-0.019 0.27-0.037 0.404-0.057C60.044 58.191 59.908 58.21 59.774 58.229zM62.616 57.774c0.139-0.024 0.275-0.05 0.412-0.075C62.891 57.725 62.755 57.75 62.616 57.774zM65.265 57.259c0.057-0.013 0.115-0.023 0.172-0.035C65.38 57.235 65.321 57.246 65.265 57.259zM67.722 56.689c0.117-0.029 0.234-0.059 0.352-0.089C67.956 56.631 67.839 56.66 67.722 56.689zM72.312 55.348c0.091-0.029 0.181-0.061 0.27-0.092C72.493 55.287 72.403 55.318 72.312 55.348zM76.313 53.773c0.059-0.027 0.119-0.055 0.177-0.082C76.433 53.719 76.372 53.746 76.313 53.773zM78.142 52.867c0.011-0.006 0.02-0.012 0.029-0.018C78.161 52.855 78.152 52.861 78.142 52.867zM79.645 51.984c0.028-0.018 0.057-0.034 0.085-0.053C79.702 51.95 79.673 51.967 79.645 51.984z" data-fill-palette-color="accent"></path></svg></g></svg></g></svg></g><defs></defs></svg><rect width="395.52" height="46.07687779676966" fill="none" stroke="none" visibility="hidden"></rect></g></svg></g></svg>